;Coverted using MIDI2ASM
;Code by TriteHexagon
;Version 5.0.1 (7-Feb-2021)
;Visit github.com/TriteHexagon/Midi2ASM-Converter for up-to-date versions.

; ============================================================================================================

Music_ArceusBattle:
	musicheader 4, 1, Music_ArceusBattle_Ch1
	musicheader 1, 2, Music_ArceusBattle_Ch2
	musicheader 1, 3, Music_ArceusBattle_Ch3
	musicheader 1, 4, Music_ArceusBattle_Ch4

Music_ArceusBattle_Ch1:
	volume $77
	dutycycle $2
	notetype 12, $a7
	vibrato $10, $15
	tempo 127
;Bar 1
	octave 2
	intensity $b7
	note C_, 4
	note C_, 2
	note __, 2
	intensity $57
	note C_, 2
	note __, 2
	intensity $47
	note C_, 2
	note __, 2
;Bar 2
	intensity $37
	note C_, 2
	note __, 2
	note C_, 2
	note __, 2
	note C_, 2
	note __, 2
	intensity $27
	note C_, 2
	note __, 2
;Bar 3
	octave 4
	intensity $b7
	note C_, 4
	note C_, 2
	note __, 2
	intensity $67
	note C_, 2
	note __, 2
	intensity $47
	note C_, 2
	note __, 2
;Bar 4
	intensity $37
	note C_, 2
	note __, 2
	intensity $27
	note C_, 2
	note __, 2
	intensity $17
	note C_, 2
	note __, 2
	octave 5
	intensity $b7
	note C_, 4
;Bar 5
	octave 1
	intensity $20
	note G_, 16
	note G_, 16
;Bar 7
	note G_, 4
	note __, 12
;Bar 8
	note G_, 4
	note __, 12
;Bar 9
	note G_, 4
	note __, 12
;Bar 10
	note G_, 4
	note __, 12
	note __, 16
	note __, 16
	note __, 16
	note __, 16
	note __, 16
	note __, 16
	note __, 16
	note __, 16
	note __, 16
	note __, 16
	note __, 16
	note __, 16
	note __, 12
;Bar 22
	octave 2
	note C_, 4
;Bar 23
	note C_, 1
	intensity $47
	note C_, 1
	note __, 6
	intensity $b7
	note E_, 12
;Bar 24
	intensity $47
	note E_, 1
	note __, 1
	octave 1
	intensity $b7
	note B_, 3
	intensity $47
	note B_, 1
	note __, 2
	octave 2
	intensity $b7
	note D#, 4
;Bar 25
	note D#, 1
	intensity $47
	note D#, 1
	note __, 4
	octave 1
	intensity $b7
	note A_, 10
;Bar 26
	octave 2
	note C#, 8
	intensity $47
	note C#, 1
	note __, 3
	intensity $b7
	note C#, 4
;Bar 27
	note C_, 1
	intensity $47
	note C_, 1
	note __, 16
	note __, 16
	note __, 16
	note __, 10
;Bar 30
	octave 5
	intensity $b7
	note C_, 4
;Bar 31
	note C_, 1
	intensity $47
	note C_, 1
	note __, 6
	intensity $b7
	note E_, 12
;Bar 32
	intensity $47
	note E_, 1
	note __, 1
	octave 4
	intensity $b7
	note B_, 3
	intensity $47
	note B_, 1
	note __, 2
	octave 5
	intensity $b7
	note D#, 4
;Bar 33
	note D#, 1
	intensity $47
	note D#, 1
	note __, 4
	octave 4
	intensity $b7
	note A_, 10
;Bar 34
	octave 5
	note D_, 8
	intensity $47
	note D_, 1
	note __, 3
	intensity $b7
	note C#, 4
;Bar 35
	note C_, 1
	intensity $27
	note C_, 1
	note __, 16
	note __, 16
	note __, 16
	note __, 14
;Bar 39
	octave 1
	intensity $c7
	note C#, 1
	note __, 16
	note __, 16
	note __, 16
	note __, 11
;Bar 42
	octave 4
	note C_, 4
;Bar 43
	note C_, 1
	intensity $47
	note C_, 1
	note __, 16
	note __, 10
;Bar 44
	octave 2
	intensity $c7
	note C_, 4
;Bar 45
	note C_, 1
	intensity $47
	note C_, 1
	endchannel

; ============================================================================================================

Music_ArceusBattle_Ch2:
	dutycycle $1
	notetype 12, $a7
	vibrato $8, $36
;Bar 1
	octave 1
	intensity $b7
	note A#, 4
	note A#, 2
	note __, 2
	intensity $67
	note A#, 2
	note __, 2
	intensity $47
	note A#, 2
	note __, 2
;Bar 2
	intensity $37
	note A#, 2
	note __, 2
	intensity $27
	note A#, 2
	note __, 2
	note A#, 2
	note __, 2
	intensity $17
	note A#, 2
	note __, 2
;Bar 3
	octave 3
	intensity $b7
	note A#, 4
	note A#, 2
	note __, 2
	intensity $67
	note A#, 2
	note __, 2
	intensity $47
	note A#, 2
	note __, 2
;Bar 4
	intensity $37
	note A#, 2
	note __, 2
	intensity $27
	note A#, 2
	note __, 2
	intensity $17
	note A#, 2
	note __, 2
	octave 4
	intensity $b7
	note A#, 4
;Bar 5
	note A#, 1
	intensity $47
	note A#, 1
	note __, 16
	note __, 16
	note __, 16
	note __, 16
	note __, 16
	note __, 16
	note __, 16
	note __, 16
	note __, 16
	note __, 16
	note __, 16
	note __, 16
	note __, 16
	note __, 16
	note __, 16
	note __, 16
	note __, 16
	note __, 10
;Bar 22
	octave 1
	intensity $b7
	note A#, 4
;Bar 23
	note A#, 1
	intensity $47
	note A#, 1
	note __, 6
	octave 2
	intensity $b7
	note D_, 12
;Bar 24
	intensity $47
	note D_, 1
	note __, 1
	octave 1
	intensity $b7
	note A_, 3
	intensity $47
	note A_, 1
	note __, 2
	octave 2
	intensity $b7
	note C#, 4
;Bar 25
	note C#, 1
	intensity $47
	note C#, 1
	note __, 4
	octave 1
	intensity $b7
	note G_, 10
;Bar 26
	note A_, 8
	intensity $47
	note A_, 1
	note __, 3
	intensity $b7
	note B_, 4
;Bar 27
	note A#, 1
	intensity $47
	note A#, 1
	note __, 16
	note __, 16
	note __, 16
	note __, 10
;Bar 30
	octave 4
	intensity $b7
	note A#, 4
;Bar 31
	note A#, 1
	intensity $47
	note A#, 1
	note __, 6
	octave 5
	intensity $b7
	note D_, 12
;Bar 32
	intensity $47
	note D_, 1
	note __, 1
	octave 4
	intensity $b7
	note G#, 3
	intensity $47
	note G#, 1
	note __, 2
	octave 5
	intensity $b7
	note C_, 4
;Bar 33
	note C#, 1
	intensity $47
	note C#, 1
	note __, 4
	octave 4
	intensity $b7
	note F#, 10
;Bar 34
	note B_, 8
	intensity $47
	note B_, 1
	note __, 3
	intensity $b7
	note B_, 4
;Bar 35
	note A#, 1
	intensity $47
	note A#, 1
	note __, 16
	note __, 16
	note __, 16
	note __, 16
	note __, 16
	note __, 16
	note __, 16
	note __, 10
;Bar 42
	octave 3
	intensity $b7
	note A#, 4
;Bar 43
	note A#, 1
	intensity $47
	note A#, 1
	note __, 16
	note __, 10
;Bar 44
	octave 1
	intensity $b7
	note A#, 4
;Bar 45
	note A#, 1
	intensity $47
	note A#, 1
	endchannel

; ============================================================================================================

Music_ArceusBattle_Ch3:
	notetype 12, $10
;Bar 1
	intensity $30
	note __, 16
	note __, 16
	note __, 16
	note __, 16
;Bar 5
	octave 1
	intensity $20
	note G_, 16
	note G_, 16
;Bar 7
	note G_, 4
	note __, 12
;Bar 8
	note G_, 4
	note __, 12
;Bar 9
	note G_, 4
	note __, 12
;Bar 10
	note G_, 4
	note __, 12
;Bar 11
	octave 2
	note G_, 4
	note E_, 2
	note E_, 2
	note G_, 4
	note E_, 2
	note E_, 2
;Bar 12
	note E_, 4
	note G_, 2
	note E_, 2
	note E_, 2
	note G_, 2
	note E_, 2
	note E_, 2
;Bar 13
	note G_, 4
	note E_, 2
	note E_, 2
	note G_, 4
	note E_, 2
	note E_, 2
;Bar 14
	note E_, 4
	note G_, 2
	note E_, 2
	note E_, 2
	note G_, 2
	note E_, 2
	note E_, 2
;Bar 15
	note G_, 4
	note E_, 2
	note E_, 2
	note G_, 4
	note E_, 2
	note E_, 2
;Bar 16
	note E_, 4
	note G_, 2
	note E_, 2
	note E_, 2
	note G_, 2
	note E_, 2
	note E_, 2
;Bar 17
	note G_, 4
	note E_, 2
	note E_, 2
	note G_, 4
	note E_, 2
	note E_, 2
;Bar 18
	note E_, 4
	note G_, 2
	note E_, 2
	note E_, 2
	note G_, 2
	note E_, 2
	note E_, 2
;Bar 19
	note G_, 4
	note E_, 2
	note E_, 2
	note G_, 4
	note E_, 2
	note E_, 2
;Bar 20
	note E_, 4
	note G_, 2
	note E_, 2
	note E_, 2
	note G_, 2
	note E_, 2
	note E_, 2
;Bar 21
	note G_, 4
	note E_, 2
	note E_, 2
	note G_, 4
	note E_, 2
	note E_, 2
;Bar 22
	note E_, 4
	note G_, 2
	note E_, 2
	note E_, 2
	note G_, 2
	note E_, 2
	note E_, 2
;Bar 23
	note G_, 4
	note E_, 2
	note E_, 2
	note G_, 4
	note E_, 2
	note E_, 2
;Bar 24
	note E_, 4
	note G_, 2
	note E_, 2
	note E_, 2
	note G_, 2
	note E_, 2
	note E_, 2
;Bar 25
	note G_, 4
	note E_, 2
	note E_, 2
	note G_, 4
	note E_, 2
	note E_, 2
;Bar 26
	note E_, 4
	note G_, 2
	note E_, 2
	note E_, 2
	note G_, 2
	note E_, 2
	note E_, 2
;Bar 27
	note G_, 4
	note E_, 2
	note E_, 2
	note G_, 4
	note E_, 2
	note E_, 2
;Bar 28
	note E_, 4
	note G_, 2
	note E_, 2
	note E_, 2
	note G_, 2
	note E_, 2
	note E_, 2
;Bar 29
	note G_, 4
	note E_, 2
	note E_, 2
	note G_, 4
	note E_, 2
	note E_, 2
;Bar 30
	note E_, 4
	note G_, 2
	note E_, 2
	note E_, 2
	note G_, 2
	note E_, 2
	note E_, 2
;Bar 31
	note G_, 4
	note E_, 2
	note E_, 2
	note G_, 4
	note E_, 2
	note E_, 2
;Bar 32
	note E_, 4
	note G_, 2
	note E_, 2
	note E_, 2
	note G_, 2
	note E_, 2
	note E_, 2
;Bar 33
	note G_, 4
	note E_, 2
	note E_, 2
	note G_, 4
	note E_, 2
	note E_, 2
;Bar 34
	note E_, 4
	note G_, 2
	note E_, 2
	note E_, 2
	note G_, 2
	note E_, 2
	note E_, 2
;Bar 35
	note G_, 4
	note E_, 2
	note E_, 2
	note G_, 4
	note E_, 2
	note E_, 2
;Bar 36
	note E_, 4
	note G_, 2
	note E_, 2
	note E_, 2
	note G_, 2
	note E_, 2
	note E_, 2
;Bar 37
	note G_, 4
	note E_, 2
	note E_, 2
	note G_, 4
	note E_, 2
	note E_, 2
;Bar 38
	note E_, 4
	note G_, 2
	note E_, 2
	note E_, 2
	note G_, 2
	note E_, 2
	note E_, 2
;Bar 39
	octave 1
	note G_, 4
	note __, 12
;Bar 40
	note G_, 4
	note __, 12
;Bar 41
	note G_, 4
	note __, 12
;Bar 42
	note G_, 4
	note __, 12
;Bar 43
	note __, 16
	note __, 16
;Bar 45
	note C_, 16
	note C_, 16
;Bar 47
	note __, 16
	note __, 16
;Bar 49
	note C_, 16
	note C_, 16
	endchannel

; ============================================================================================================

Music_ArceusBattle_Ch4:
;	togglenoise 1 ; WARNING: this might sound bad.
	notetype 12
;Bar 1
	note __, 16
	note __, 16
	note __, 16
	note __, 16
	note __, 16
	note __, 16
	note __, 16
	note __, 16
	note __, 16
	note __, 16
	note __, 16
	note __, 16
	note __, 16
	note __, 16
;Bar 15
	note A_, 2
	;note F_, 0 | WARNING: Rounded down to 0
	note A_, 1
	note A_, 3
	;note F_, 0 | WARNING: Rounded down to 0
	note A_, 2
	note A_, 1
	note F_, 1
	note A_, 2
	;note F_, 0 | WARNING: Rounded down to 0
	note A_, 3
	note A_, 1
;Bar 16
	;note F_, 0 | WARNING: Rounded down to 0
	note A_, 1
	note F_, 1
	note A_, 2
	;note F_, 0 | WARNING: Rounded down to 0
	note A_, 3
	;note F_, 0 | WARNING: Rounded down to 0
	note A_, 1
	note A_, 1
	note A_, 1
	note F_, 2
	;note F_, 0 | WARNING: Rounded down to 0
	;note A_, 0 | WARNING: Rounded down to 0
	note B_, 2
	;note F_, 0 | WARNING: Rounded down to 0
	;note A_, 0 | WARNING: Rounded down to 0
	note B_, 2
;Bar 17
	;note A_, 0 | WARNING: Rounded down to 0
	note F_, 2
	;note F_, 0 | WARNING: Rounded down to 0
	note A_, 1
	note A_, 3
	;note F_, 0 | WARNING: Rounded down to 0
	note A_, 2
	note A_, 1
	note F_, 1
	note A_, 2
	;note F_, 0 | WARNING: Rounded down to 0
	note A_, 3
	note A_, 1
;Bar 18
	;note F_, 0 | WARNING: Rounded down to 0
	note A_, 1
	note F_, 1
	note A_, 2
	;note F_, 0 | WARNING: Rounded down to 0
	note A_, 3
	;note F_, 0 | WARNING: Rounded down to 0
	note A_, 1
	note A_, 1
	note A_, 1
	note F_, 2
	;note F_, 0 | WARNING: Rounded down to 0
	;note A_, 0 | WARNING: Rounded down to 0
	note B_, 2
	;note F_, 0 | WARNING: Rounded down to 0
	;note A_, 0 | WARNING: Rounded down to 0
	note B_, 2
;Bar 19
	note __, 16
	note __, 16
	note __, 16
	note __, 16
;Bar 23
	note A_, 2
	;note F_, 0 | WARNING: Rounded down to 0
	note A_, 1
	note A_, 3
	;note F_, 0 | WARNING: Rounded down to 0
	note A_, 2
	note A_, 1
	note F_, 1
	note A_, 2
	;note F_, 0 | WARNING: Rounded down to 0
	note A_, 3
	note A_, 1
;Bar 24
	;note F_, 0 | WARNING: Rounded down to 0
	note A_, 1
	note F_, 1
	note A_, 2
	;note F_, 0 | WARNING: Rounded down to 0
	note A_, 3
	;note F_, 0 | WARNING: Rounded down to 0
	note A_, 1
	note A_, 1
	note A_, 1
	note F_, 2
	;note F_, 0 | WARNING: Rounded down to 0
	note A_, 2
	;note F_, 0 | WARNING: Rounded down to 0
	note A_, 2
;Bar 25
	;note A_, 0 | WARNING: Rounded down to 0
	note F_, 2
	;note F_, 0 | WARNING: Rounded down to 0
	note A_, 1
	note A_, 3
	;note F_, 0 | WARNING: Rounded down to 0
	note A_, 2
	note A_, 1
	note F_, 1
	note A_, 2
	;note F_, 0 | WARNING: Rounded down to 0
	note A_, 3
	note A_, 1
;Bar 26
	;note F_, 0 | WARNING: Rounded down to 0
	note A_, 1
	note F_, 1
	note A_, 2
	;note F_, 0 | WARNING: Rounded down to 0
	note A_, 3
	;note F_, 0 | WARNING: Rounded down to 0
	note A_, 1
	note A_, 1
	note A_, 1
	note F_, 2
	;note F_, 0 | WARNING: Rounded down to 0
	note A_, 2
	;note F_, 0 | WARNING: Rounded down to 0
	note A_, 2
;Bar 27
	note __, 16
	note __, 16
	note __, 16
	note __, 16
;Bar 31
	note A_, 2
	;note F_, 0 | WARNING: Rounded down to 0
	note A_, 1
	note A_, 3
	;note F_, 0 | WARNING: Rounded down to 0
	note A_, 2
	note A_, 1
	note F_, 1
	note A_, 2
	;note F_, 0 | WARNING: Rounded down to 0
	note A_, 3
	note A_, 1
;Bar 32
	;note F_, 0 | WARNING: Rounded down to 0
	note A_, 1
	note F_, 1
	note A_, 2
	;note F_, 0 | WARNING: Rounded down to 0
	note A_, 3
	;note F_, 0 | WARNING: Rounded down to 0
	note A_, 1
	note A_, 1
	note A_, 1
	note F_, 2
	;note F_, 0 | WARNING: Rounded down to 0
	note A_, 2
	;note F_, 0 | WARNING: Rounded down to 0
	note A_, 2
;Bar 33
	;note A_, 0 | WARNING: Rounded down to 0
	note F_, 2
	;note F_, 0 | WARNING: Rounded down to 0
	note A_, 1
	note A_, 3
	;note F_, 0 | WARNING: Rounded down to 0
	note A_, 2
	note A_, 1
	note F_, 1
	note A_, 2
	;note F_, 0 | WARNING: Rounded down to 0
	note A_, 3
	note A_, 1
;Bar 34
	;note F_, 0 | WARNING: Rounded down to 0
	note A_, 1
	note F_, 1
	note A_, 2
	;note F_, 0 | WARNING: Rounded down to 0
	note A_, 3
	;note F_, 0 | WARNING: Rounded down to 0
	note A_, 1
	note A_, 1
	note A_, 1
	note F_, 2
	;note F_, 0 | WARNING: Rounded down to 0
	note A_, 2
	;note F_, 0 | WARNING: Rounded down to 0
	note A_, 2
	endchannel

; ============================================================================================================

