;Coverted using MIDI2ASM
;Code by TriteHexagon
;Version 5.0.1 (7-Feb-2021)
;Visit github.com/TriteHexagon/Midi2ASM-Converter for up-to-date versions.

; ============================================================================================================

Music_LookYoungsterSinnoh:
	musicheader 4, 1, Music_LookYoungsterSinnoh_Ch1
	musicheader 1, 2, Music_LookYoungsterSinnoh_Ch2
	musicheader 1, 3, Music_LookYoungsterSinnoh_Ch3
	musicheader 1, 4, Music_LookYoungsterSinnoh_Ch4

Music_LookYoungsterSinnoh_Ch1:
	volume $77
	dutycycle $2
	notetype 12, $a7
	tempo 61
;Bar 1
	octave 4
	intensity $b7
	note G#, 2
	note G#, 2
	intensity $47
	note G#, 2
	intensity $b7
	note G#, 2
	note G#, 2
	intensity $47
	note G#, 4
	note __, 2
;Bar 2
	intensity $b7
	note F#, 2
	note F#, 2
	intensity $47
	note F#, 2
	intensity $b7
	note F#, 2
	note F#, 2
	intensity $47
	note F#, 4
	note __, 2
;Bar 3
	intensity $b7
	note F_, 2
	intensity $47
	note F_, 2
	intensity $b7
	note C#, 2
	intensity $47
	note C#, 2
	octave 3
	intensity $b7
	note G#, 2
	note G#, 2
	octave 4
	note C#, 2
	note C#, 2
;Bar 4
	octave 3
	note B_, 2
	octave 4
	note C#, 2
	octave 3
	note B_, 2
	note A#, 2
	note G#, 2
	note G#, 4
	intensity $47
	note G#, 2
;Bar 5
	intensity $b7
	note G#, 2
	note A#, 2
	note B_, 2
	octave 4
	note C#, 2
	octave 3
	note B_, 2
	note B_, 4
	intensity $47
	note B_, 2
;Bar 6
	intensity $b7
	note A#, 2
	note A#, 2
	octave 4
	note C#, 2
	intensity $47
	note C#, 2
	octave 3
	intensity $b7
	note A#, 2
	note A#, 2
	octave 4
	note E_, 2
	note E_, 2
;Bar 7
	note D#, 2
	note D#, 2
	octave 3
	note G#, 4
	octave 4
	note C_, 2
	note C_, 2
	note D#, 4
;Bar 8
	note C#, 2
	octave 3
	note B_, 2
	note A#, 2
	note G#, 2
	note G_, 2
	note G_, 2
	note F#, 2
	note G_, 2
;Bar 9
	note G#, 2
	note G#, 2
	intensity $47
	note G#, 4
	intensity $b7
	note G#, 2
	note G#, 2
	intensity $47
	note G#, 4
;Bar 10
	intensity $b7
	note G#, 2
	note G#, 2
	intensity $47
	note G#, 2
	octave 4
	intensity $b7
	note G#, 2
	note G#, 2
	intensity $47
	note G#, 2
	intensity $b7
	note F#, 2
	;note F#, 0 | WARNING: Rounded down to 0
	note __, 2
;Bar 11
	note F_, 4
	note C#, 4
	octave 3
	note G#, 4
	octave 4
	note C#, 4
;Bar 12
	octave 3
	note B_, 2
	octave 4
	note C#, 2
	octave 3
	note B_, 2
	note A#, 2
	note G#, 8
;Bar 13
	note G#, 2
	note A#, 2
	note B_, 2
	octave 4
	note C#, 2
	octave 3
	note B_, 8
;Bar 14
	note A#, 4
	octave 4
	note C#, 4
	octave 3
	note F#, 4
	note A#, 4
;Bar 15
	note G#, 2
	note G#, 2
	intensity $47
	note G#, 4
	intensity $b7
	note G#, 2
	note G#, 2
	intensity $47
	note G#, 4
;Bar 16
	intensity $b7
	note G_, 2
	note G_, 2
	note G#, 2
	note G#, 2
	note A_, 2
	note A_, 2
	note G#, 2
	note G#, 2
;Bar 17
	note __, 8
	octave 4
	note E_, 2
	note F_, 2
	note F#, 2
	note G_, 2
;Bar 18
	note G#, 2
	note G#, 2
	intensity $47
	note G#, 2
	intensity $b7
	note G#, 2
	note F#, 2
	note F#, 2
	intensity $47
	note F#, 2
	intensity $b7
	note F#, 2
	endchannel

; ============================================================================================================

Music_LookYoungsterSinnoh_Ch2:
	dutycycle $1
	notetype 12, $a7
;Bar 1
	octave 3
	intensity $67
	note C_, 2
	note D#, 2
	note F#, 2
	note G#, 2
	octave 4
	note C_, 2
	note C_, 2
	intensity $37
	note C_, 4
;Bar 2
	octave 2
	intensity $67
	note A#, 2
	octave 3
	note C#, 2
	note E_, 2
	note F#, 2
	note A#, 2
	note A#, 2
	intensity $37
	note A#, 4
;Bar 3
	intensity $67
	note C#, 2
	note C#, 2
	note C#, 4
	octave 2
	note G#, 2
	note G#, 2
	note G#, 4
;Bar 4
	note B_, 4
	note B_, 2
	note B_, 2
	note G#, 4
	note G#, 2
	note G#, 2
;Bar 5
	octave 3
	note C#, 2
	note C#, 4
	note C#, 2
	octave 2
	note G#, 2
	note G#, 4
	note G#, 2
;Bar 6
	note A#, 6
	note A#, 6
	octave 3
	note C#, 4
;Bar 7
	note C_, 6
	note C_, 6
	note D#, 4
;Bar 8
	note C#, 4
	octave 2
	note A#, 4
	note G_, 4
	octave 3
	note C_, 4
;Bar 9
	note C#, 2
	note C#, 6
	note C#, 2
	note C#, 6
;Bar 10
	note C_, 2
	note C_, 4
	note D#, 2
	note D#, 4
	octave 2
	;note G#, 0 | WARNING: Rounded down to 0
	note __, 8
;Bar 11
	note G#, 2
	intensity $37
	note G#, 2
	intensity $67
	note F_, 2
	intensity $37
	note F_, 4
	note __, 6
;Bar 12
	intensity $67
	note B_, 2
	intensity $37
	note B_, 2
	intensity $67
	note F#, 2
	intensity $37
	note F#, 4
	note __, 6
;Bar 13
	intensity $67
	note G#, 2
	intensity $37
	note G#, 2
	intensity $67
	note F_, 2
	intensity $37
	note F_, 4
	note __, 2
;Bar 14
	intensity $67
	note A#, 2
	intensity $37
	note A#, 4
	intensity $67
	note F#, 2
	intensity $37
	note F#, 4
	intensity $67
	note A#, 2
	intensity $37
	note A#, 2
;Bar 15
	octave 3
	intensity $67
	note C_, 2
	note C_, 2
	intensity $37
	note C_, 2
	intensity $67
	note C_, 10
;Bar 16
	note C#, 2
	note C#, 2
	intensity $37
	note C#, 2
	intensity $67
	note C#, 10
;Bar 17
	intensity $87
	note C_, 2
	note C#, 2
	note D_, 2
	note D#, 2
	note E_, 2
	note D#, 2
	note D_, 2
	note C#, 2
;Bar 18
	note C_, 2
	note D_, 2
	note D#, 2
	note E_, 2
	note D#, 2
	note D#, 2
	intensity $37
	note D#, 2
	intensity $87
	note D#, 2
	endchannel

; ============================================================================================================

Music_LookYoungsterSinnoh_Ch3:
	notetype 12, $10
;Bar 1
	octave 3
	intensity $10
	note G#, 2
	note G#, 2
	intensity $20
	note G#, 2
	intensity $10
	note G#, 2
	octave 2
	note G#, 2
	note G#, 2
	intensity $20
	note G#, 4
;Bar 2
	octave 3
	intensity $10
	note F#, 2
	note F#, 2
	intensity $20
	note F#, 2
	intensity $10
	note F#, 2
	octave 2
	note F#, 2
	note F#, 2
	intensity $20
	note F#, 4
;Bar 3
	intensity $10
	note C#, 6
	note __, 2
	note F_, 6
	note __, 2
;Bar 4
	note D#, 6
	note __, 2
	note F#, 6
	note __, 2
;Bar 5
	note C#, 6
	note __, 2
	note F_, 6
	note __, 2
;Bar 6
	note F#, 2
	note F#, 2
	intensity $20
	note F#, 2
	intensity $10
	note F#, 2
	note F#, 2
	intensity $20
	note F#, 2
	intensity $10
	note A#, 2
	intensity $20
	note A#, 2
;Bar 7
	intensity $10
	note G#, 2
	note G#, 2
	intensity $20
	note G#, 2
	intensity $10
	note G#, 2
	note G#, 2
	intensity $20
	note G#, 2
	octave 3
	intensity $10
	note C_, 2
	intensity $20
	note C_, 2
;Bar 8
	octave 2
	intensity $10
	note G_, 2
	note G#, 2
	note A#, 2
	octave 3
	note C#, 2
	note D#, 2
	note E_, 2
	note F_, 2
	note G_, 2
;Bar 9
	note G#, 2
	note G#, 2
	octave 2
	note G#, 2
	intensity $20
	note G#, 2
	octave 3
	intensity $10
	note G#, 2
	note G#, 2
	octave 2
	note G#, 2
	intensity $20
	note G#, 2
;Bar 10
	intensity $10
	note G#, 2
	note A#, 2
	octave 3
	note C_, 2
	octave 2
	note C#, 2
	note D#, 2
	note F#, 2
	note G#, 2
	octave 3
	;note C_, 0 | WARNING: Rounded down to 0
	note __, 2
;Bar 11
	octave 2
	note C#, 2
	note C#, 2
	octave 3
	note C#, 2
	intensity $20
	note C#, 2
	octave 2
	intensity $10
	note C#, 2
	note C#, 2
	octave 3
	note C#, 2
	intensity $20
	note C#, 2
;Bar 12
	octave 2
	intensity $10
	note D#, 2
	note D#, 2
	octave 3
	note D#, 2
	intensity $20
	note D#, 2
	octave 2
	intensity $10
	note D#, 2
	note D#, 2
	octave 3
	note D#, 2
	intensity $20
	note D#, 2
;Bar 13
	octave 2
	intensity $10
	note C#, 2
	note C#, 2
	octave 3
	note C#, 2
	octave 2
	note C#, 2
	note C#, 2
	note C#, 2
	octave 3
	note C#, 2
	octave 2
	note C#, 2
;Bar 14
	note F#, 2
	note F#, 2
	note F#, 2
	note A#, 2
	note A#, 2
	note A#, 2
	octave 3
	note C#, 2
	;note E_, 0 | WARNING: Rounded down to 0
	note __, 2
;Bar 15
	note G#, 2
	note G#, 2
	intensity $20
	note G#, 2
	intensity $10
	note G#, 2
	octave 2
	note G#, 8
;Bar 16
	octave 3
	note A_, 2
	note A_, 2
	intensity $20
	note A_, 2
	intensity $10
	note A_, 2
	octave 2
	note A_, 8
;Bar 17
	note G#, 2
	note A_, 2
	note A#, 2
	note B_, 2
	octave 3
	note C_, 2
	octave 2
	note B_, 2
	note A#, 2
	note A_, 2
;Bar 18
	note G#, 2
	octave 3
	note D#, 4
	octave 2
	note G#, 2
	octave 3
	note G_, 2
	note G#, 2
	octave 2
	note G#, 2
	note C_, 2
	endchannel

; ============================================================================================================

Music_LookYoungsterSinnoh_Ch4:
	togglenoise 1 ; WARNING: this might sound bad.
	notetype 12
;Bar 1
	note C_, 12
	note A_, 4
;Bar 2
	note C_, 12
	note A_, 8
;Bar 3
	note E_, 8
	note E_, 8
;Bar 4
	note E_, 8
	note E_, 8
;Bar 5
	note E_, 2
	note E_, 6
	note E_, 8
;Bar 6
	note E_, 2
	note E_, 6
	note E_, 8
;Bar 7
	note G#, 4
	note A_, 12
;Bar 8
	note G#, 4
	note A_, 12
;Bar 9
	note E_, 2
	note E_, 6
	note E_, 2
	note E_, 6
;Bar 10
	note E_, 4
	note E_, 12
;Bar 11
	note F#, 2
	note F#, 6
	note F#, 8
;Bar 12
	note F#, 2
	note F#, 6
	note F#, 8
;Bar 13
	note F#, 8
	note F#, 2
	note F#, 6
;Bar 14
	note F#, 2
	note F#, 2
	note F#, 4
	note F#, 4
;Bar 15
	note E_, 2
	note E_, 4
	note E_, 2
	note E_, 8
;Bar 16
	note E_, 2
	note E_, 4
	note E_, 2
	note E_, 6
	note __, 16
	note __, 2
;Bar 18
	note E_, 2
	note E_, 4
	note E_, 2
	note F#, 6
	endchannel

; ============================================================================================================

